<svg width="32" height="32" viewBox="0 0 32 32" fill="none" xmlns="http://www.w3.org/2000/svg">
<rect width="32" height="32" rx="16" fill="#2F2B42"/>
<path d="M9.13934 14.684C8.41358 12.4336 8.0507 11.3084 8.21187 10.5322C8.4545 9.36366 9.36666 8.45009 10.5348 8.20566C11.3108 8.0433 12.4365 8.40445 14.6881 9.12674L18.4552 10.3352C19.5133 10.6747 20.0424 10.8444 20.2634 10.9583C22.5535 12.1384 22.3889 15.466 19.9936 16.4144C19.7624 16.5059 19.2165 16.6232 18.1247 16.8578V16.8578C18.0169 16.8809 17.963 16.8925 17.9143 16.9064C17.4146 17.0496 17.0247 17.4413 16.8837 17.9416C16.87 17.9903 16.8587 18.044 16.8361 18.1514V18.1514C16.623 19.165 16.5165 19.6717 16.435 19.8876C15.5123 22.3333 12.1207 22.5111 10.9474 20.1753C10.8438 19.9691 10.6848 19.4763 10.367 18.4906L9.13934 14.684Z" stroke="white" stroke-width="2.25" stroke-linejoin="round"/>
</svg>
