<svg width="70" height="70" viewBox="0 0 70 70" fill="none" xmlns="http://www.w3.org/2000/svg">
<rect x="0.304443" y="0.213928" width="69.2974" height="69.2974" rx="34.6487" fill="#FF6262" fill-opacity="0.1"/>
<g opacity="0.8">
<path d="M43.6829 24.9455V24.9455C43.8315 23.0125 42.3032 21.3621 40.3645 21.3621H29.5524C27.6138 21.3621 26.0855 23.0125 26.2341 24.9455V24.9455M43.6829 24.9455L43.0337 33.3842C42.7091 37.6038 39.1906 40.8621 34.9585 40.8621V40.8621M43.6829 24.9455V24.9455C46.6106 24.9455 48.8701 27.5212 48.4887 30.424L48.3473 31.5001C47.9818 34.2821 45.6106 36.3621 42.8046 36.3621V36.3621M26.2341 24.9455L26.8833 33.3842C27.2079 37.6038 30.7264 40.8621 34.9585 40.8621V40.8621M26.2341 24.9455V24.9455C23.3064 24.9455 21.0469 27.5212 21.4283 30.424L21.5697 31.5001C21.9352 34.2821 24.3064 36.3621 27.1123 36.3621V36.3621M34.9585 40.8621V43.8621M34.9585 43.8621L38.2791 45.8545C39.7631 46.7449 40.5051 47.1901 40.5007 47.6197C40.4994 47.7505 40.4639 47.8787 40.3977 47.9915C40.1804 48.3621 39.3151 48.3621 37.5846 48.3621H32.3324C30.6019 48.3621 29.7366 48.3621 29.5193 47.9915C29.4531 47.8787 29.4176 47.7505 29.4163 47.6197C29.4119 47.1901 30.1539 46.7449 31.6379 45.8545L34.9585 43.8621Z" stroke="#FF6262" stroke-width="2.25" stroke-linejoin="round"/>
<path d="M33.7472 27.5651C34.2114 26.6245 34.4435 26.1542 34.7923 26.0753C34.9013 26.0506 35.0143 26.0506 35.1233 26.0753C35.4721 26.1542 35.7042 26.6245 36.1684 27.5651L36.4071 28.0486C36.5435 28.3251 36.6117 28.4634 36.7218 28.5609C36.758 28.593 36.7973 28.6215 36.8391 28.6461C36.9658 28.7206 37.1184 28.7428 37.4235 28.7871L37.9572 28.8647C38.9952 29.0155 39.5142 29.0909 39.697 29.3983C39.7541 29.4943 39.789 29.6018 39.7993 29.713C39.832 30.0691 39.4565 30.4352 38.7054 31.1674L38.3192 31.5438C38.0984 31.759 37.988 31.8666 37.9293 32.0014C37.9099 32.0458 37.8949 32.092 37.8845 32.1393C37.8528 32.2829 37.8788 32.4348 37.931 32.7387L38.0221 33.2702C38.1994 34.304 38.2881 34.8209 38.0523 35.0898C37.9786 35.1737 37.8871 35.2402 37.7845 35.2843C37.4559 35.4255 36.9917 35.1814 36.0633 34.6933L35.586 34.4424C35.3131 34.2989 35.1767 34.2272 35.0303 34.213C34.9821 34.2083 34.9335 34.2083 34.8853 34.213C34.739 34.2272 34.6025 34.2989 34.3296 34.4424L33.8523 34.6933C32.9239 35.1814 32.4597 35.4255 32.1311 35.2843C32.0285 35.2402 31.937 35.1737 31.8633 35.0898C31.6275 34.8209 31.7162 34.304 31.8935 33.2702L31.9847 32.7387C32.0368 32.4348 32.0628 32.2829 32.0311 32.1393C32.0207 32.092 32.0057 32.0458 31.9863 32.0014C31.9276 31.8666 31.8172 31.759 31.5964 31.5438L31.2102 31.1674C30.4591 30.4352 30.0836 30.0691 30.1163 29.713C30.1266 29.6018 30.1615 29.4943 30.2186 29.3983C30.4014 29.0909 30.9204 29.0155 31.9584 28.8647L32.4921 28.7871C32.7972 28.7428 32.9498 28.7206 33.0765 28.6461C33.1183 28.6215 33.1576 28.593 33.1938 28.5609C33.3039 28.4634 33.3721 28.3251 33.5086 28.0486L33.7472 27.5651Z" fill="#FF6262"/>
</g>
</svg>
