<svg width="68" height="14" viewBox="0 0 68 14" fill="none" xmlns="http://www.w3.org/2000/svg">
<path d="M6.29014 0.865173C6.46663 0.509946 6.97337 0.509947 7.14986 0.865174L8.5913 3.7663C8.66119 3.90697 8.79549 4.00454 8.95087 4.02754L12.1554 4.50193C12.5478 4.56002 12.7044 5.04196 12.4211 5.31958L10.1074 7.58697C9.99521 7.69691 9.94391 7.85479 9.97005 8.00967L10.5091 11.204C10.5752 11.5951 10.1652 11.893 9.81361 11.7093L6.94223 10.2095C6.803 10.1368 6.637 10.1368 6.49777 10.2095L3.62639 11.7093C3.2748 11.893 2.86484 11.5951 2.93085 11.204L3.46995 8.00967C3.49608 7.85479 3.44479 7.69691 3.3326 7.58697L1.01889 5.31958C0.735593 5.04196 0.892184 4.56002 1.28456 4.50193L4.48913 4.02754C4.64451 4.00454 4.77881 3.90697 4.8487 3.7663L6.29014 0.865173Z" fill="#E6BA1F"/>
<path d="M19.7301 0.865173C19.9066 0.509946 20.4134 0.509947 20.5899 0.865174L22.0313 3.7663C22.1012 3.90697 22.2355 4.00454 22.3909 4.02754L25.5954 4.50193C25.9878 4.56002 26.1444 5.04196 25.8611 5.31958L23.5474 7.58697C23.4352 7.69691 23.3839 7.85479 23.4101 8.00967L23.9492 11.204C24.0152 11.5951 23.6052 11.893 23.2536 11.7093L20.3822 10.2095C20.243 10.1368 20.077 10.1368 19.9378 10.2095L17.0664 11.7093C16.7148 11.893 16.3048 11.5951 16.3709 11.204L16.9099 8.00967C16.9361 7.85479 16.8848 7.69691 16.7726 7.58697L14.4589 5.31958C14.1756 5.04196 14.3322 4.56002 14.7246 4.50193L17.9291 4.02754C18.0845 4.00454 18.2188 3.90697 18.2887 3.7663L19.7301 0.865173Z" fill="#E6BA1F"/>
<path d="M33.1701 0.865173C33.3466 0.509946 33.8534 0.509947 34.0299 0.865174L35.4713 3.7663C35.5412 3.90697 35.6755 4.00454 35.8309 4.02754L39.0354 4.50193C39.4278 4.56002 39.5844 5.04196 39.3011 5.31958L36.9874 7.58697C36.8752 7.69691 36.8239 7.85479 36.8501 8.00967L37.3892 11.204C37.4552 11.5951 37.0452 11.893 36.6936 11.7093L33.8222 10.2095C33.683 10.1368 33.517 10.1368 33.3778 10.2095L30.5064 11.7093C30.1548 11.893 29.7448 11.5951 29.8109 11.204L30.35 8.00967C30.3761 7.85479 30.3248 7.69691 30.2126 7.58697L27.8989 5.31958C27.6156 5.04196 27.7722 4.56002 28.1646 4.50193L31.3691 4.02754C31.5245 4.00454 31.6588 3.90697 31.7287 3.7663L33.1701 0.865173Z" fill="#E6BA1F"/>
<path d="M46.6101 0.865173C46.7866 0.509946 47.2934 0.509947 47.4699 0.865174L48.9113 3.7663C48.9812 3.90697 49.1155 4.00454 49.2709 4.02754L52.4754 4.50193C52.8678 4.56002 53.0244 5.04196 52.7411 5.31958L50.4274 7.58697C50.3152 7.69691 50.2639 7.85479 50.2901 8.00967L50.8292 11.204C50.8952 11.5951 50.4852 11.893 50.1336 11.7093L47.2622 10.2095C47.123 10.1368 46.957 10.1368 46.8178 10.2095L43.9464 11.7093C43.5948 11.893 43.1848 11.5951 43.2509 11.204L43.79 8.00967C43.8161 7.85479 43.7648 7.69691 43.6526 7.58697L41.3389 5.31958C41.0556 5.04196 41.2122 4.56002 41.6046 4.50193L44.8091 4.02754C44.9645 4.00454 45.0988 3.90697 45.1687 3.7663L46.6101 0.865173Z" fill="#E6BA1F"/>
<path d="M60.0501 0.865173C60.2266 0.509946 60.7334 0.509947 60.9099 0.865174L62.3513 3.7663C62.4212 3.90697 62.5555 4.00454 62.7109 4.02754L65.9154 4.50193C66.3078 4.56002 66.4644 5.04196 66.1811 5.31958L63.8674 7.58697C63.7552 7.69691 63.7039 7.85479 63.73 8.00967L64.2691 11.204C64.3352 11.5951 63.9252 11.893 63.5736 11.7093L60.7022 10.2095C60.563 10.1368 60.397 10.1368 60.2578 10.2095L57.3864 11.7093C57.0348 11.893 56.6248 11.5951 56.6908 11.204L57.2299 8.00967C57.2561 7.85479 57.2048 7.69691 57.0926 7.58697L54.7789 5.31958C54.4956 5.04196 54.6522 4.56002 55.0446 4.50193L58.2491 4.02754C58.4045 4.00454 58.5388 3.90697 58.6087 3.7663L60.0501 0.865173Z" fill="#E6BA1F"/>
</svg>
