<svg width="70" height="70" viewBox="0 0 70 70" fill="none" xmlns="http://www.w3.org/2000/svg">
<rect x="0.366577" y="0.213928" width="69.2974" height="69.2974" rx="34.6487" fill="#00E5E5" fill-opacity="0.2"/>
<g opacity="0.8">
<path d="M31.2146 26.0258C31.7952 24.3662 32.0855 23.5364 32.3456 23.1446C33.829 20.9099 37.1107 20.9099 38.5941 23.1446C38.8542 23.5364 39.1584 24.406 39.7668 26.1451V26.1451C39.894 26.5086 39.9576 26.6903 40.0261 26.8417C40.5841 28.0744 41.7629 28.911 43.1108 29.0306C43.2763 29.0453 43.4589 29.0453 43.8241 29.0453H44.1907C45.2438 29.0453 45.7703 29.0453 46.0332 29.0827C49.1352 29.5244 50.3598 33.3499 48.0909 35.5108C47.8985 35.694 47.4699 35.9997 46.6126 36.6112V36.6112C46.3677 36.7859 46.2453 36.8732 46.141 36.9596C45.0094 37.8969 44.5295 39.4088 44.9134 40.8272C44.9488 40.9579 45.0001 41.1046 45.1027 41.3979V41.3979C45.5351 42.6338 45.7512 43.2517 45.8042 43.575C46.2864 46.5201 43.3022 48.8211 40.5765 47.6059C40.2773 47.4725 39.7516 47.1178 38.7003 46.4083L38.0135 45.9449C37.5852 45.6559 37.371 45.5114 37.1595 45.4046C36.0969 44.8683 34.8428 44.8683 33.7803 45.4046C33.5687 45.5114 33.3545 45.6559 32.9262 45.9449L32.2698 46.3878C31.194 47.1138 30.6561 47.4768 30.3494 47.6121C27.6313 48.8107 24.665 46.5235 25.1331 43.59C25.1859 43.259 25.407 42.6271 25.8491 41.3634V41.3634C25.9529 41.0665 26.0049 40.9181 26.0406 40.7853C26.4173 39.3874 25.9556 37.8976 24.8546 36.9577C24.75 36.8683 24.6272 36.7782 24.3816 36.5979V36.5979C23.5278 35.971 23.1008 35.6575 22.9076 35.4672C20.6994 33.2927 21.9323 29.5303 24.9992 29.0843C25.2676 29.0453 25.7972 29.0453 26.8564 29.0453H27.1279C27.4814 29.0453 27.6581 29.0453 27.8183 29.0315C29.1741 28.9151 30.3604 28.0733 30.918 26.832C30.9839 26.6853 31.0423 26.5185 31.159 26.1848L31.2146 26.0258Z" stroke="#00E5E5" stroke-width="2.25" stroke-linejoin="round"/>
</g>
</svg>
