<svg width="70" height="70" viewBox="0 0 70 70" fill="none" xmlns="http://www.w3.org/2000/svg">
<rect x="0.404602" y="0.213928" width="69.2974" height="69.2974" rx="34.6487" fill="#FFC700" fill-opacity="0.2"/>
<g opacity="0.8">
<path d="M27.8438 21.3621H41.3438M27.8438 21.3621V28.1121C27.8438 28.8086 27.8438 29.1569 27.8727 29.4502C28.1532 32.2989 30.407 34.5527 33.2557 34.8332C33.549 34.8621 33.8973 34.8621 34.5938 34.8621M27.8438 21.3621H24.0938M41.3438 21.3621V28.1121C41.3438 28.8086 41.3438 29.1569 41.3149 29.4502C41.0343 32.2989 38.7805 34.5527 35.9319 34.8332C35.6385 34.8621 35.2903 34.8621 34.5938 34.8621M41.3438 21.3621H45.0938M34.5938 34.8621C35.2903 34.8621 35.6385 34.8621 35.9319 34.891C38.7806 35.1716 41.0343 37.4254 41.3149 40.274C41.3438 40.5674 41.3438 40.9156 41.3438 41.6121V48.3621M34.5938 34.8621C33.8973 34.8621 33.549 34.8621 33.2557 34.891C30.407 35.1716 28.1532 37.4254 27.8727 40.274C27.8438 40.5674 27.8438 40.9156 27.8438 41.6121L27.8438 48.3621M41.3438 48.3621L27.8438 48.3621M41.3438 48.3621H45.0938M27.8438 48.3621H24.0938" stroke="#FFC700" stroke-width="2.25" stroke-linecap="round" stroke-linejoin="round"/>
</g>
</svg>
